<?xml version="1.0" encoding="UTF-8" standalone="no"?>
<svg
   viewBox="0 0 500 500"
   version="1.1"
   id="svg1"
   sodipodi:docname="stoatchat.svg"
   inkscape:version="1.4.3 (0d15f75042, 2025-12-25)"
   xmlns:inkscape="http://www.inkscape.org/namespaces/inkscape"
   xmlns:sodipodi="http://sodipodi.sourceforge.net/DTD/sodipodi-0.dtd"
   xmlns="http://www.w3.org/2000/svg"
   xmlns:svg="http://www.w3.org/2000/svg">
  <defs
     id="defs1" />
  <sodipodi:namedview
     id="namedview1"
     pagecolor="#ffffff"
     bordercolor="#000000"
     borderopacity="0.25"
     inkscape:showpageshadow="2"
     inkscape:pageopacity="0.0"
     inkscape:pagecheckerboard="0"
     inkscape:deskcolor="#d1d1d1"
     inkscape:zoom="1.1962136"
     inkscape:cx="536.69343"
     inkscape:cy="261.24096"
     inkscape:window-width="1920"
     inkscape:window-height="1011"
     inkscape:window-x="0"
     inkscape:window-y="0"
     inkscape:window-maximized="1"
     inkscape:current-layer="svg1" />
  <path
     d="M 80.048604,441.17951 C 31.120798,395.57252 0.504,330.56934 0.504,258.47252 0.504,120.62675 112.41638,8.716 250.26052,8.716 c 137.84575,0 249.7565,111.91238 249.7565,249.75488 0,114.71916 -77.50968,211.47491 -182.96972,240.71116 -23.40565,-34.39127 -44.62135,-65.71956 -28.75975,-117.28117 -19.35213,9.87596 -31.51595,29.30316 -35.19741,50.42421 -7.20136,-11.31689 -15.1958,-22.23235 -24.45656,-31.95655 -23.57536,-24.75519 -55.7163,-42.06587 -70.59063,-74.21335 -6.79503,-15.18437 -11.4507,-36.89126 -6.06886,-52.60273 3.8838,30.49441 18.71897,58.55084 45.29041,74.79755 20.25454,12.38249 42.95034,14.42231 65.66734,19.21342 23.68143,4.9902 61.29397,16.24345 84.36836,12.1785 19.18241,-3.37303 59.43203,-24.55936 58.35664,-47.53582 -0.37533,-7.90633 -10.0261,-21.22877 -13.59496,-28.85767 -4.74868,-10.15665 -1.93048,-12.34985 -1.38707,-22.5375 1.52578,-28.83808 -6.08844,-43.08415 -20.09625,-66.83085 -16.98758,-28.80382 -35.63148,-46.20915 -67.92093,-57.90136 -29.50877,-10.68862 -74.9232,-4.63772 -75.26915,-4.14653 5.96605,6.53882 11.4556,14.19221 12.2242,23.24899 -12.09529,-11.18798 -23.79566,-23.07928 -37.34002,-32.5636 -29.95917,-20.97256 -48.72383,-18.99476 -60.63309,17.48366 -6.20756,19.00617 -10.90076,44.83512 -5.14686,64.27536 3.4889,11.77544 10.73269,21.35767 18.9817,30.19416 -16.14064,-2.19975 -25.92522,-16.22061 -29.48429,-31.41642 -40.008104,86.5371 -48.916382,128.3843 -45.941516,218.02517 m 296.789736,-82.86869 -0.005,-0.005 c -6.21245,0.19093 -11.94352,-3.11031 -16.62856,-6.89132 -2.64197,-2.24052 -6.51599,-5.1387 -7.05776,-8.49378 -1.07376,-6.6808 4.24608,-11.4556 7.41513,-13.4383 2.71867,-1.69386 6.02317,-2.63871 9.14327,-3.35998 7.11324,-1.64328 14.49736,-3.16579 21.6612,-1.77383 2.14425,0.41776 4.27381,1.10966 6.03785,2.39883 1.76239,1.281 3.13315,3.22127 3.36977,5.39164 0.17461,1.61063 -0.26599,3.21801 -0.79798,4.74542 a 41.122659,41.122659 0 0 1 -5.08648,9.89065 c -2.11651,3.04178 -4.64588,5.83388 -7.69744,7.93406 -3.05156,2.10183 -6.65143,3.49217 -10.3541,3.6015 m -106.13878,-98.1166 c 24.56425,-3.32897 27.55871,34.71112 3.86095,36.3087 -23.69775,1.59758 -26.37072,-33.25713 -3.86095,-36.3087 m -82.76262,-75.51882 c 2.26827,5.40633 6.94189,9.00782 10.9791,12.97485 -9.16449,2.78067 -18.41382,0.12566 -26.45884,-4.48433 0.4765,8.49705 6.76892,15.99215 11.48007,21.96146 -7.76762,1.78198 -14.63281,-0.87956 -19.96408,-6.48824 -0.0783,7.89816 2.61097,14.78457 6.48499,21.46375 -15.15011,7.53589 -21.69057,-8.3143 -22.46408,-20.718 -0.84693,-13.63248 4.67037,-48.02865 14.45168,-57.93888 10.94157,-11.09007 27.93894,1.82767 37.20622,9.27544 8.17884,6.56984 16.04763,14.50716 23.4595,21.90761 -9.73073,6.42949 -24.22321,6.16187 -35.17456,2.04634 m 190.39628,99.31122 c -5.35575,-9.31298 -6.99412,-12.02185 -10.10932,-18.76629 -2.12141,-4.59203 -3.19354,-10.03915 4.48922,-10.20071 13.93765,-0.29536 18.76629,21.77869 7.91122,29.48104 a 1.5926871,1.5926871 0 0 1 -2.29112,-0.51404 m -9.15632,-88.86737 c 3.95398,-54.35698 3.49216,-89.53643 -46.92063,-40.1925 19.02739,8.84953 35.02933,22.96831 46.92063,40.1925"
     id="path1"
     style="fill:#5d4037;stroke-width:1.63185" />
</svg>
